<svg width="12" height="10" viewBox="0 0 12 10" fill="none" xmlns="http://www.w3.org/2000/svg">
<path d="M11.0459 8.95231L8.08947 6.25262C8.63603 5.4941 8.85493 4.57737 8.70381 3.67993C8.55269 2.78249 8.04229 1.96816 7.27143 1.39463C6.50057 0.821093 5.52409 0.529142 4.53103 0.575301C3.53798 0.621459 2.59901 1.00244 1.89591 1.64449C1.19281 2.28654 0.775592 3.14398 0.725044 4.05079C0.674496 4.95761 0.99421 5.8493 1.62228 6.55323C2.25036 7.25715 3.14212 7.72323 4.1249 7.86123C5.10769 7.99923 6.11159 7.79933 6.94224 7.30023L9.89865 9.99992L11.0459 8.95231ZM1.86805 4.23807C1.86805 2.79394 3.15466 1.61905 4.73612 1.61905C6.31757 1.61905 7.60419 2.79394 7.60419 4.23807C7.60419 5.6822 6.31757 6.85709 4.73612 6.85709C3.15466 6.85709 1.86805 5.6822 1.86805 4.23807Z" fill="#4F4F4F"/>
</svg>
