<svg id="Layer_1" data-name="Layer 1" xmlns="http://www.w3.org/2000/svg" viewBox="0 0 193.56 85"><defs><style>.cls-1{fill:#43bfee;}.cls-2{fill:#475c78;}.cls-3{fill:#fdea1b;}.cls-4{fill:#7db828;}</style></defs><path class="cls-1" d="M14.4,8C15,30,28.49,27,38.56,33.76c7.13,4.29,7.86,12.48,4.06,17-6.95,8.18-15.91,7.26-22.08,3C4.47,44.29,3.1,24.33,14.4,8Z"/><path class="cls-2" d="M74.12,27.46v-.12a2.39,2.39,0,0,0,.59-.11A.64.64,0,0,0,75,27a1,1,0,0,0,.14-.46c0-.19,0-.43,0-.71V22.36c0-.29,0-.53,0-.72a1,1,0,0,0-.14-.46.61.61,0,0,0-.33-.25,2,2,0,0,0-.6-.12v-.12l.78,0h3.83l.82,0,.12,1.82-.13,0a4,4,0,0,0-.4-.89,1.54,1.54,0,0,0-.47-.48,1.65,1.65,0,0,0-.58-.19c-.21,0-.44,0-.7,0h-.62l-.3,0-.33,0v2.7c.18,0,.41-.09.69-.14a4.76,4.76,0,0,1,.84-.07,3,3,0,0,1,.88.14,2.58,2.58,0,0,1,.81.41,2.3,2.3,0,0,1,.58.66,1.72,1.72,0,0,1,.22.88,1.69,1.69,0,0,1-.24.93,2,2,0,0,1-.6.59,2.42,2.42,0,0,1-.8.31,4.07,4.07,0,0,1-.82.1l-.52,0-.56,0-.54,0-.48,0h-.73Zm3.18-.26a3.13,3.13,0,0,0,.7-.08,1.41,1.41,0,0,0,.58-.27,1.34,1.34,0,0,0,.39-.51,1.87,1.87,0,0,0,.15-.8,1.81,1.81,0,0,0-.14-.72,2,2,0,0,0-.37-.55,1.6,1.6,0,0,0-.51-.35,1.54,1.54,0,0,0-.58-.12,3.94,3.94,0,0,0-.77.08,3.82,3.82,0,0,0-.63.18V27a.85.85,0,0,0,.27.1l.34.07.33,0Z"/><path class="cls-2" d="M81.58,27.58a1,1,0,0,1-.69-.23.72.72,0,0,1-.25-.56.58.58,0,0,1,.19-.47.68.68,0,0,1,.44-.16.53.53,0,0,1,.26.06.77.77,0,0,1,.18.18.88.88,0,0,1,.11.24,1.17,1.17,0,0,1,0,.26.53.53,0,0,0,.31-.11,1,1,0,0,0,.28-.37,4.09,4.09,0,0,0,.23-.7,8.79,8.79,0,0,0,.18-1.09c0-.25.06-.5.08-.76s0-.49.07-.72,0-.43,0-.62,0-.35,0-.47a5,5,0,0,0,0-.62.66.66,0,0,0-.14-.36.53.53,0,0,0-.33-.18,3.23,3.23,0,0,0-.58-.09v-.12l.82,0h4.28l.67,0v.12a1.74,1.74,0,0,0-.56.12.6.6,0,0,0-.31.25,1.14,1.14,0,0,0-.13.46,7.1,7.1,0,0,0,0,.72V25.8a7,7,0,0,0,0,.71,1.14,1.14,0,0,0,.13.46.63.63,0,0,0,.33.26,2.39,2.39,0,0,0,.59.11v.12l-.78,0H85.49l-.74,0v-.12a2.2,2.2,0,0,0,.57-.11.69.69,0,0,0,.32-.26,1.14,1.14,0,0,0,.13-.46,7,7,0,0,0,0-.71V21.06l-.5,0-.58,0a6.38,6.38,0,0,0-.66,0,.6.6,0,0,0-.38.13.46.46,0,0,0-.15.27,1.79,1.79,0,0,0-.06.37l-.22,2.44a3.32,3.32,0,0,1,0,.34c0,.17,0,.35-.06.56s-.06.42-.1.64a4.07,4.07,0,0,1-.15.58,2.25,2.25,0,0,1-.28.62,1.76,1.76,0,0,1-.33.37,1,1,0,0,1-.36.18A1.63,1.63,0,0,1,81.58,27.58Z"/><path class="cls-2" d="M88.16,27.34a1.44,1.44,0,0,0,.53-.22,1.5,1.5,0,0,0,.35-.36,2,2,0,0,0,.26-.45c.06-.16.14-.34.21-.51l1.78-4.38.06-.13a.27.27,0,0,0,0-.12.85.85,0,0,0,0-.15.66.66,0,0,0-.09-.19,2,2,0,0,0,.47-.13l.43-.17,2.14,5.88a1.53,1.53,0,0,0,.4.64,1.4,1.4,0,0,0,.76.29v.12l-.81,0h-2l-.33,0v-.12a1.9,1.9,0,0,0,.73-.22.52.52,0,0,0,.29-.46.45.45,0,0,0,0-.16.64.64,0,0,1-.06-.16l-.67-1.89H90.43l-.68,1.86a1,1,0,0,1-.06.14.68.68,0,0,0,0,.14.46.46,0,0,0,.11.32.8.8,0,0,0,.26.22,1.83,1.83,0,0,0,.32.14l.27.07v.12l-.61,0H88.79l-.63,0Zm4.31-3.2-.93-2.62-1,2.62Z"/><path class="cls-2" d="M95.87,27.34a2.39,2.39,0,0,0,.59-.11.69.69,0,0,0,.32-.26,1,1,0,0,0,.14-.46,6.68,6.68,0,0,0,0-.71V22.36a6.73,6.73,0,0,0,0-.72,1,1,0,0,0-.14-.46.67.67,0,0,0-.32-.25,2,2,0,0,0-.59-.12v-.12l.39,0,.48,0h3.91l.39,0h.4l.15,2-.16,0a3.81,3.81,0,0,0-.37-.93,1.47,1.47,0,0,0-.52-.53,1.66,1.66,0,0,0-.73-.24,10.26,10.26,0,0,0-1-.05h-.21l-.24,0h-.23l-.2,0V26a4.78,4.78,0,0,0,0,.64.75.75,0,0,0,.17.37.86.86,0,0,0,.38.21c.16,0,.39.1.67.15v.12l-.88,0H96.63l-.76,0Z"/><path class="cls-2" d="M106.15,27.63a4.5,4.5,0,0,1-1.48-.24,3.63,3.63,0,0,1-1.21-.7,3.42,3.42,0,0,1-.82-1.12,3.88,3.88,0,0,1,0-3,3.38,3.38,0,0,1,.82-1.11,3.46,3.46,0,0,1,1.21-.7,4.5,4.5,0,0,1,1.48-.24,4.44,4.44,0,0,1,1.47.24,3.38,3.38,0,0,1,1.21.7,3.24,3.24,0,0,1,.82,1.11,3.76,3.76,0,0,1,0,3,3.28,3.28,0,0,1-.82,1.12,3.53,3.53,0,0,1-1.21.7A4.44,4.44,0,0,1,106.15,27.63Zm0-.37a2.52,2.52,0,0,0,1.14-.26,2.64,2.64,0,0,0,.85-.7,3,3,0,0,0,.54-1,4,4,0,0,0,.19-1.2,4.08,4.08,0,0,0-.19-1.21,3,3,0,0,0-.54-1,2.52,2.52,0,0,0-.85-.7,2.39,2.39,0,0,0-1.14-.26,2.34,2.34,0,0,0-1.14.26,2.55,2.55,0,0,0-.86.7,3.14,3.14,0,0,0-.53,1,3.78,3.78,0,0,0-.19,1.21,3.68,3.68,0,0,0,.19,1.2,3.19,3.19,0,0,0,.53,1,2.68,2.68,0,0,0,.86.7A2.46,2.46,0,0,0,106.15,27.26Z"/><path class="cls-2" d="M110.22,29.22c0-.27.07-.6.1-1s0-.75,0-1.12A1.21,1.21,0,0,0,111,27a1.3,1.3,0,0,0,.37-.32,4,4,0,0,0,.3-.55c.1-.21.18-.42.26-.63l.19-.6.12-.46q.17-.68.24-1.17a8.14,8.14,0,0,0,.1-.91,7.1,7.1,0,0,0,0-.72.92.92,0,0,0-.13-.45.59.59,0,0,0-.32-.26,2,2,0,0,0-.59-.12v-.12l.84,0h4.37l.67,0v.12a1.88,1.88,0,0,0-.57.12.57.57,0,0,0-.31.26,1,1,0,0,0-.13.45c0,.19,0,.43,0,.72V25.7a7,7,0,0,0,0,.7.8.8,0,0,0,.13.41.61.61,0,0,0,.34.22,3.6,3.6,0,0,0,.64.1c0,.37,0,.74,0,1.12s.06.7.09,1l-.13.05a4.33,4.33,0,0,0-.32-.85,2,2,0,0,0-.47-.57,1.59,1.59,0,0,0-.65-.32,3.33,3.33,0,0,0-.89-.11h-2.45a3.23,3.23,0,0,0-.87.11,1.65,1.65,0,0,0-.65.32,2,2,0,0,0-.47.57,3.78,3.78,0,0,0-.32.85Zm3.49-2.09c.29,0,.56,0,.84,0s.56,0,.84-.06v-6l-.5,0h-1l-.36,0a.6.6,0,0,0-.45.2.73.73,0,0,0-.18.42l-.08.91a12.22,12.22,0,0,1-.28,1.84c-.13.49-.24.89-.34,1.2s-.14.41-.19.55a3.6,3.6,0,0,1-.13.34,1.16,1.16,0,0,0-.08.2.27.27,0,0,0,0,.12.25.25,0,0,0,.08.18.36.36,0,0,0,.24.07l.79.05C113.18,27.13,113.45,27.13,113.71,27.13Z"/><path class="cls-2" d="M118.33,27.34a2.3,2.3,0,0,0,.57-.11.69.69,0,0,0,.32-.26,1.14,1.14,0,0,0,.13-.46,7,7,0,0,0,0-.71V22.36a7.1,7.1,0,0,0,0-.72,1.14,1.14,0,0,0-.13-.46.65.65,0,0,0-.33-.25,2,2,0,0,0-.58-.12v-.12l.83,0h1.52l.67,0v.12a1.74,1.74,0,0,0-.56.12.6.6,0,0,0-.31.25,1.14,1.14,0,0,0-.13.46,7.1,7.1,0,0,0,0,.72V25.8a7,7,0,0,0,0,.71,1.14,1.14,0,0,0,.13.46.63.63,0,0,0,.33.26,2.39,2.39,0,0,0,.59.11v.12l-.78,0h-1.53l-.74,0Z"/><path class="cls-2" d="M122.25,27.34a2.12,2.12,0,0,0,.57-.11.64.64,0,0,0,.32-.26,1,1,0,0,0,.13-.46,7,7,0,0,0,0-.71V22.36a7.1,7.1,0,0,0,0-.72,1,1,0,0,0-.13-.46.61.61,0,0,0-.33-.25,2,2,0,0,0-.58-.12v-.12l.84,0h1.51l.67,0v.12a1.74,1.74,0,0,0-.56.12.6.6,0,0,0-.31.25,1.14,1.14,0,0,0-.13.46,7.1,7.1,0,0,0,0,.72v3.75L128,21.4a.61.61,0,0,0-.3-.42,1.92,1.92,0,0,0-.7-.17v-.12l.84,0h1.52l.67,0v.12a1.88,1.88,0,0,0-.57.12.64.64,0,0,0-.31.25,1.14,1.14,0,0,0-.12.46,7.1,7.1,0,0,0,0,.72V25.8a7,7,0,0,0,0,.71,1,1,0,0,0,.13.46.64.64,0,0,0,.32.26,2.58,2.58,0,0,0,.6.11v.12l-.78,0h-1.54l-.74,0v-.12a2.29,2.29,0,0,0,.58-.11.62.62,0,0,0,.31-.26,1,1,0,0,0,.14-.46c0-.19,0-.43,0-.71v-4l-3.78,4.76a1.31,1.31,0,0,0,.09.33.55.55,0,0,0,.19.21.83.83,0,0,0,.3.13,2.63,2.63,0,0,0,.46.07v.12l-.78,0H123l-.74,0Zm3.89-7a1.8,1.8,0,0,1-.6-.09,1.6,1.6,0,0,1-.45-.25.94.94,0,0,1-.27-.33.8.8,0,0,1-.09-.36.58.58,0,0,1,.09-.3.36.36,0,0,1,.35-.16.47.47,0,0,1,.33.11.44.44,0,0,1,.1.3.41.41,0,0,1,0,.19.43.43,0,0,1-.14.2.69.69,0,0,0,.19.29.83.83,0,0,0,.54.14.93.93,0,0,0,.31,0,.9.9,0,0,0,.22-.1.43.43,0,0,0,.13-.14.51.51,0,0,0,.07-.15.43.43,0,0,1-.14-.2.45.45,0,0,1-.06-.19.44.44,0,0,1,.11-.3.45.45,0,0,1,.33-.11.37.37,0,0,1,.35.16.58.58,0,0,1,.09.3.8.8,0,0,1-.09.36,1.1,1.1,0,0,1-.28.33,1.54,1.54,0,0,1-.44.25A1.8,1.8,0,0,1,126.14,20.3Z"/><path class="cls-2" d="M130.82,27.34a2.29,2.29,0,0,0,.58-.11.62.62,0,0,0,.31-.26,1,1,0,0,0,.14-.46c0-.19,0-.43,0-.71V22.36c0-.29,0-.53,0-.72a1,1,0,0,0-.14-.46.62.62,0,0,0-.32-.25,2,2,0,0,0-.59-.12v-.12l.84,0h1.52l.67,0v.12a1.88,1.88,0,0,0-.57.12.64.64,0,0,0-.31.25,1.14,1.14,0,0,0-.12.46,7.1,7.1,0,0,0,0,.72v1.25h3.82V22.36a7.1,7.1,0,0,0,0-.72,1,1,0,0,0-.13-.46.61.61,0,0,0-.33-.25,1.88,1.88,0,0,0-.58-.12v-.12l.84,0h1.52l.66,0v.12a1.81,1.81,0,0,0-.56.12.6.6,0,0,0-.31.25,1.14,1.14,0,0,0-.13.46,7.1,7.1,0,0,0,0,.72V25.8a7,7,0,0,0,0,.71,1.14,1.14,0,0,0,.13.46.67.67,0,0,0,.33.26,2.39,2.39,0,0,0,.6.11v.12l-.79,0h-1.53l-.74,0v-.12a2.12,2.12,0,0,0,.57-.11.64.64,0,0,0,.32-.26,1,1,0,0,0,.13-.46,7,7,0,0,0,0-.71V23.94H132.8V25.8a7,7,0,0,0,0,.71A1,1,0,0,0,133,27a.64.64,0,0,0,.32.26,2.58,2.58,0,0,0,.6.11v.12l-.78,0h-1.54l-.74,0Z"/><path class="cls-2" d="M139.4,27.34a2.12,2.12,0,0,0,.57-.11.64.64,0,0,0,.32-.26,1,1,0,0,0,.13-.46,7,7,0,0,0,0-.71V22.36a7.1,7.1,0,0,0,0-.72,1,1,0,0,0-.13-.46.61.61,0,0,0-.33-.25,2,2,0,0,0-.58-.12v-.12l.84,0h1.51l.67,0v.12a1.74,1.74,0,0,0-.56.12.6.6,0,0,0-.31.25,1.14,1.14,0,0,0-.13.46,7.1,7.1,0,0,0,0,.72v3.75l3.75-4.71a.61.61,0,0,0-.3-.42,1.92,1.92,0,0,0-.7-.17v-.12l.84,0h1.52l.67,0v.12a1.88,1.88,0,0,0-.57.12.64.64,0,0,0-.31.25,1.14,1.14,0,0,0-.12.46,7.1,7.1,0,0,0,0,.72V25.8a7,7,0,0,0,0,.71,1,1,0,0,0,.13.46.64.64,0,0,0,.32.26,2.58,2.58,0,0,0,.6.11v.12l-.78,0h-1.54l-.74,0v-.12a2.29,2.29,0,0,0,.58-.11A.62.62,0,0,0,145,27a1,1,0,0,0,.14-.46c0-.19,0-.43,0-.71v-4l-3.78,4.76a1.31,1.31,0,0,0,.09.33.55.55,0,0,0,.19.21.83.83,0,0,0,.3.13,2.61,2.61,0,0,0,.47.07v.12l-.79,0h-1.53l-.74,0Z"/><path class="cls-2" d="M148,27.34a2.29,2.29,0,0,0,.58-.11.62.62,0,0,0,.31-.26,1,1,0,0,0,.14-.46c0-.19,0-.43,0-.71V22.36c0-.29,0-.53,0-.72a1,1,0,0,0-.14-.46.62.62,0,0,0-.32-.25,2,2,0,0,0-.59-.12v-.12l.84,0h1.52l.67,0v.12a1.88,1.88,0,0,0-.57.12.64.64,0,0,0-.31.25,1.14,1.14,0,0,0-.12.46,7.1,7.1,0,0,0,0,.72v3.75l3.75-4.71a.66.66,0,0,0-.31-.42,1.86,1.86,0,0,0-.69-.17v-.12l.84,0h1.52l.66,0v.12a1.81,1.81,0,0,0-.56.12.6.6,0,0,0-.31.25,1.14,1.14,0,0,0-.13.46c0,.19,0,.43,0,.72V25.8c0,.28,0,.52,0,.71a1.14,1.14,0,0,0,.13.46.67.67,0,0,0,.33.26,2.39,2.39,0,0,0,.6.11v.12l-.79,0h-1.53l-.74,0v-.12a2.29,2.29,0,0,0,.58-.11.66.66,0,0,0,.31-.26,1,1,0,0,0,.13-.46,7,7,0,0,0,0-.71v-4L150,26.6a1,1,0,0,0,.1.33.46.46,0,0,0,.18.21.81.81,0,0,0,.31.13,2.49,2.49,0,0,0,.46.07v.12l-.78,0h-1.54l-.74,0Zm3.89-7a1.89,1.89,0,0,1-.6-.09,1.69,1.69,0,0,1-.44-.25.94.94,0,0,1-.27-.33.81.81,0,0,1-.1-.36.6.6,0,0,1,.1-.3.36.36,0,0,1,.35-.16.38.38,0,0,1,.43.41.59.59,0,0,1-.05.19.44.44,0,0,1-.15.2.72.72,0,0,0,.2.29.8.8,0,0,0,.53.14,1,1,0,0,0,.32,0,.82.82,0,0,0,.21-.1.47.47,0,0,0,.14-.14,1,1,0,0,0,.07-.15.44.44,0,0,1-.15-.2.59.59,0,0,1,0-.19.38.38,0,0,1,.43-.41.36.36,0,0,1,.35.16.58.58,0,0,1,.09.3.8.8,0,0,1-.09.36.94.94,0,0,1-.27.33,1.69,1.69,0,0,1-.44.25A1.91,1.91,0,0,1,151.86,20.3Z"/><path class="cls-2" d="M161.73,27.5a3.85,3.85,0,0,0,.49-.08.64.64,0,0,0,.47-.48,2.32,2.32,0,0,0,.08-.44,2.44,2.44,0,0,1-.5.13,4.64,4.64,0,0,1-.7,0,2.28,2.28,0,0,1-.81-.16A2.5,2.5,0,0,1,160,26a2.61,2.61,0,0,1-.6-.83,2.75,2.75,0,0,1-.24-1.19,2.41,2.41,0,0,1,.25-1.15,2.37,2.37,0,0,1,.64-.79,2.55,2.55,0,0,1,.87-.44,3.47,3.47,0,0,1,1-.14,3.63,3.63,0,0,1,.5,0,3.1,3.1,0,0,1,.42.08,2,2,0,0,0-.08-.42.78.78,0,0,0-.17-.28.7.7,0,0,0-.31-.16,2.7,2.7,0,0,0-.49-.09v-.12l.83,0h1.52l.67,0v.12a2.58,2.58,0,0,0-.48.09.63.63,0,0,0-.47.44,3,3,0,0,0-.07.42,3,3,0,0,1,.43-.08,3.63,3.63,0,0,1,.5,0,3.47,3.47,0,0,1,1,.14,2.55,2.55,0,0,1,.87.44,2.5,2.5,0,0,1,.64.79,2.54,2.54,0,0,1,.25,1.15,2.75,2.75,0,0,1-.24,1.19,2.46,2.46,0,0,1-1.39,1.31,2.28,2.28,0,0,1-.81.16,4.78,4.78,0,0,1-.71,0,2,2,0,0,1-.49-.13,2.46,2.46,0,0,0,.06.44.87.87,0,0,0,.17.3.77.77,0,0,0,.32.18,4.46,4.46,0,0,0,.52.08v.13q-.39,0-.78,0h-1.53c-.25,0-.5,0-.74,0Zm.2-1.19a1.73,1.73,0,0,0,.85-.23V22l-.35-.11a1.34,1.34,0,0,0-.35-.05,2,2,0,0,0-.8.16,1.8,1.8,0,0,0-.6.44,1.94,1.94,0,0,0-.39.69,3.28,3.28,0,0,0-.13.91,2.82,2.82,0,0,0,.44,1.68A1.57,1.57,0,0,0,161.93,26.31Zm2.62,0a1.54,1.54,0,0,0,1.32-.59,2.75,2.75,0,0,0,.45-1.68,2.94,2.94,0,0,0-.14-.91,1.92,1.92,0,0,0-.38-.69,1.8,1.8,0,0,0-.6-.44,2,2,0,0,0-.8-.16,1.36,1.36,0,0,0-.36.05l-.34.11v4.08A1.7,1.7,0,0,0,164.55,26.31Z"/><path class="cls-2" d="M172.05,27.63a4.55,4.55,0,0,1-1.48-.24,3.73,3.73,0,0,1-1.21-.7,3.47,3.47,0,0,1-1.12-2.61,3.44,3.44,0,0,1,.31-1.5,3.35,3.35,0,0,1,.81-1.11,3.56,3.56,0,0,1,1.21-.7,4.68,4.68,0,0,1,3,0,3.46,3.46,0,0,1,1.21.7,3.53,3.53,0,0,1,.82,1.11,3.55,3.55,0,0,1-.82,4.11,3.63,3.63,0,0,1-1.21.7A4.5,4.5,0,0,1,172.05,27.63Zm0-.37a2.46,2.46,0,0,0,1.14-.26,2.68,2.68,0,0,0,.86-.7,3.19,3.19,0,0,0,.53-1,3.68,3.68,0,0,0,.19-1.2,3.78,3.78,0,0,0-.19-1.21,3.14,3.14,0,0,0-.53-1,2.55,2.55,0,0,0-.86-.7,2.34,2.34,0,0,0-1.14-.26,2.37,2.37,0,0,0-1.14.26,2.65,2.65,0,0,0-.86.7,3.14,3.14,0,0,0-.53,1,4.08,4.08,0,0,0-.19,1.21,4,4,0,0,0,.19,1.2,3.19,3.19,0,0,0,.53,1,2.79,2.79,0,0,0,.86.7A2.49,2.49,0,0,0,172.05,27.26Z"/><path class="cls-2" d="M176.74,27.34a2.3,2.3,0,0,0,.57-.11.69.69,0,0,0,.32-.26,1.14,1.14,0,0,0,.13-.46,7,7,0,0,0,0-.71V22.36a7.1,7.1,0,0,0,0-.72,1.14,1.14,0,0,0-.13-.46.65.65,0,0,0-.33-.25,2,2,0,0,0-.59-.12v-.12l.84,0h1.52l.67,0v.12a1.88,1.88,0,0,0-.57.12.58.58,0,0,0-.3.25,1,1,0,0,0-.13.46,7.1,7.1,0,0,0,0,.72v1.25h3.82V22.36c0-.29,0-.53,0-.72a1.14,1.14,0,0,0-.14-.46.62.62,0,0,0-.32-.25,2,2,0,0,0-.59-.12v-.12l.84,0h1.52l.67,0v.12a1.88,1.88,0,0,0-.57.12.6.6,0,0,0-.31.25,1.14,1.14,0,0,0-.13.46c0,.19,0,.43,0,.72V25.8c0,.28,0,.52,0,.71a1,1,0,0,0,.14.46.64.64,0,0,0,.32.26,2.48,2.48,0,0,0,.6.11v.12l-.78,0h-1.54l-.74,0v-.12a2.29,2.29,0,0,0,.58-.11.66.66,0,0,0,.31-.26,1.14,1.14,0,0,0,.14-.46c0-.19,0-.43,0-.71V23.94h-3.82V25.8a7,7,0,0,0,0,.71,1,1,0,0,0,.13.46.63.63,0,0,0,.33.26,2.39,2.39,0,0,0,.59.11v.12l-.78,0h-1.53l-.74,0Z"/><path class="cls-2" d="M184.91,29.22c0-.27.06-.6.09-1s0-.75,0-1.12a1.21,1.21,0,0,0,.6-.13,1.17,1.17,0,0,0,.37-.32,4,4,0,0,0,.31-.55c.09-.21.18-.42.25-.63s.14-.42.19-.6a3.53,3.53,0,0,0,.12-.46c.11-.45.2-.84.25-1.17a8,8,0,0,0,.09-.91c0-.29,0-.53,0-.72a.92.92,0,0,0-.14-.45.59.59,0,0,0-.32-.26,2,2,0,0,0-.59-.12v-.12l.84,0h4.37l.67,0v.12a1.74,1.74,0,0,0-.56.12.57.57,0,0,0-.31.26,1,1,0,0,0-.13.45,7.1,7.1,0,0,0,0,.72V25.7c0,.29,0,.52,0,.7a.9.9,0,0,0,.13.41.65.65,0,0,0,.34.22,3.76,3.76,0,0,0,.64.1c0,.37,0,.74.05,1.12s0,.7.09,1l-.14.05a3.35,3.35,0,0,0-.32-.85,2,2,0,0,0-.46-.57,1.57,1.57,0,0,0-.66-.32,3.31,3.31,0,0,0-.88-.11h-2.45a3.25,3.25,0,0,0-.88.11,1.72,1.72,0,0,0-.65.32,1.86,1.86,0,0,0-.46.57,3.77,3.77,0,0,0-.33.85Zm3.49-2.09c.28,0,.56,0,.84,0l.84-.06v-6l-.51,0h-.95l-.36,0a.6.6,0,0,0-.45.2.71.71,0,0,0-.17.42l-.09.91a11.06,11.06,0,0,1-.28,1.84q-.2.74-.33,1.2l-.19.55c-.06.14-.1.26-.14.34s-.06.15-.08.2a.27.27,0,0,0,0,.12.23.23,0,0,0,.09.18.32.32,0,0,0,.23.07l.79.05C187.87,27.13,188.13,27.13,188.4,27.13Z"/><path class="cls-2" d="M.13,43.49s3.74-.4,4.25,4.54-.1,5.54,2.73,9.47c-1.32-9.27,2.76-3.86,3-3.6a12.24,12.24,0,0,0,10.18,6.72,13.29,13.29,0,0,1,10,10.48c0,1.35,0,13.9,0,13.9s-8.65-.34-9.86-2,.67-10.62-7.42-13.1C7,67.52,3.67,63.83,1.87,59.47-.09,54.68-.17,49.08.13,43.49Z"/><path class="cls-2" d="M62.42,43.49s-3.75-.4-4.25,4.54.1,5.54-2.73,9.47c.34-7-2.76-3.86-3-3.6a12.26,12.26,0,0,1-10.18,6.72A12.76,12.76,0,0,0,32.5,71.1L32.16,85s8.65-.34,9.87-2-.68-10.62,7.41-13.1C62.18,64.92,63,54.17,62.42,43.49Z"/><path class="cls-2" d="M76.8,46.57l3.35-3.84L76.8,38.78A1.06,1.06,0,0,0,76,38.4a1.15,1.15,0,0,0-.29,0l-.41.1-.33,0a.7.7,0,0,1-.8-.77c0-.55.33-.82,1-.82h.07l1.21.1c.4,0,.74,0,1,0s.67,0,1.18-.07.9-.07,1.16-.07c.66,0,1,.27,1,.82s-.3.77-.91.77a1,1,0,0,1-.36,0l-.36-.09H79c-.06,0-.09,0-.09,0a1,1,0,0,0,.21.34l2.2,2.65,2.28-2.65c.15-.16.22-.27.22-.34s-.05,0-.12,0a1.74,1.74,0,0,0-.4.07,1.64,1.64,0,0,1-.42.07c-.58,0-.87-.27-.87-.82s.34-.79,1-.79l1.27.12c.36,0,.73,0,1.14,0A11.43,11.43,0,0,0,86.68,37a9.71,9.71,0,0,1,1-.07c.7,0,1.06.27,1.06.82a.72.72,0,0,1-.82.8,2.77,2.77,0,0,1-.56-.1,2.07,2.07,0,0,0-.55-.1c-.39,0-.92.39-1.59,1.16l-2.8,3.18,3.76,4.43a1,1,0,0,0,.82.41,3.15,3.15,0,0,0,.45,0,2.31,2.31,0,0,1,.44,0c.58,0,.87.26.87.77s-.34.84-1,.84h-.19L86.59,49a10.75,10.75,0,0,0-1.16-.05,11.34,11.34,0,0,0-1.3.08l-.87.09H83c-.76,0-1.14-.25-1.14-.77s.3-.84.9-.84a6.41,6.41,0,0,1,.89.09.34.34,0,0,0,.17,0c.16,0,.24-.07.24-.19a.22.22,0,0,0-.08-.15l-.07-.1L81.24,44l-2.73,3.13a.56.56,0,0,0-.16.29q0,.12.24.12a3.86,3.86,0,0,0,.5,0,3,3,0,0,1,.51,0c.69,0,1,.28,1,.84s-.34.77-1,.77h-.34l-1-.09c-.49,0-.91-.08-1.28-.08A8.71,8.71,0,0,0,76,49a12,12,0,0,1-1.2.09c-.68,0-1-.27-1-.82s.29-.79.86-.79l.44,0a2.82,2.82,0,0,0,.43,0C75.81,47.53,76.24,47.21,76.8,46.57Z"/><path class="cls-2" d="M92.73,49.07a.57.57,0,0,1-.52-.25,1.15,1.15,0,0,1-.15-.59c0-.51.29-.77.87-.77a2.12,2.12,0,0,1,.47.09,2,2,0,0,0,.63.1c.37,0,.6-.12.68-.36a4.24,4.24,0,0,0,.12-1.21V39.65c0-.59-.11-1-.34-1.12a1.7,1.7,0,0,0-1-.23c-.48,0-.87,0-1.15,0a1.32,1.32,0,0,0-.64.18.58.58,0,0,0-.26.41,4.3,4.3,0,0,0,0,.72c0,.08,0,.19,0,.32l0,.44c0,.15,0,.3,0,.44s0,.25,0,.32a.83.83,0,0,1-.23.65.89.89,0,0,1-.63.22.87.87,0,0,1-.59-.21.81.81,0,0,1-.26-.66,6.51,6.51,0,0,1,0-.69q0-.42,0-.69a6.67,6.67,0,0,0-.09-1.18,4,4,0,0,1-.1-.84c0-.55.33-.82,1-.82a11.18,11.18,0,0,1,1.19.1c.57.06,1.44.09,2.59.09H97c1.16,0,2,0,2.59-.09a11.11,11.11,0,0,1,1.2-.1c.65,0,1,.27,1,.82a4.63,4.63,0,0,1-.09.84,5.77,5.77,0,0,0-.1,1.18,6.51,6.51,0,0,0,0,.69q0,.42,0,.69a.8.8,0,0,1-.25.66.91.91,0,0,1-.59.21.92.92,0,0,1-.64-.22.87.87,0,0,1-.23-.65c0-.07,0-.17,0-.32l0-.44c0-.15,0-.3,0-.44s0-.24,0-.32a4.51,4.51,0,0,0,0-.72.59.59,0,0,0-.27-.41,1.28,1.28,0,0,0-.64-.18c-.28,0-.66,0-1.14,0a1.76,1.76,0,0,0-1,.23c-.22.15-.33.53-.33,1.12v6.43a4.24,4.24,0,0,0,.12,1.21c.08.24.3.36.67.36a2.08,2.08,0,0,0,.64-.1,2,2,0,0,1,.47-.09c.58,0,.87.26.87.77a1.07,1.07,0,0,1-.16.59.56.56,0,0,1-.52.25l-.5,0L97.48,49l-.87-.07-.89-.06-.89.06L94,49l-.73.06Z"/><path class="cls-2" d="M108.9,49.39a5.14,5.14,0,0,1-4.05-1.75A6.92,6.92,0,0,1,103.34,43a6.88,6.88,0,0,1,1.53-4.69,5.79,5.79,0,0,1,8.25,0,6.76,6.76,0,0,1,1.52,4.65,6.86,6.86,0,0,1-1.57,4.72A5.26,5.26,0,0,1,108.9,49.39ZM109,38.11a3.24,3.24,0,0,0-2.65,1.18,5.63,5.63,0,0,0-1.06,3.35V43a5.93,5.93,0,0,0,1,3.56,3.14,3.14,0,0,0,2.67,1.29,3.31,3.31,0,0,0,2.76-1.29,5.77,5.77,0,0,0,1-3.58C112.69,39.71,111.47,38.11,109,38.11Z"/><path class="cls-2" d="M119.19,49.8a.36.36,0,0,0-.41-.41h-.48a1.22,1.22,0,0,1-.93-.41,1.46,1.46,0,0,1-.37-1,1.55,1.55,0,0,1,.48-1.16,1.64,1.64,0,0,1,1.21-.47,1.67,1.67,0,0,1,1.39.67,2.74,2.74,0,0,1,.54,1.76,6.46,6.46,0,0,1-1.43,3.78c-.42.57-.77.85-1.06.85a.43.43,0,0,1-.48-.49.8.8,0,0,1,.19-.43A5.4,5.4,0,0,0,119.19,49.8Z"/><path class="cls-2" d="M132.3,45.58a3.36,3.36,0,0,1,.3-1.53,2.61,2.61,0,0,1,.93-1A3.69,3.69,0,0,1,132,41.92a3,3,0,0,1-.55-1.88,2.7,2.7,0,0,1,1.16-2.25,5.37,5.37,0,0,1,3.25-.86c.9,0,1.74,0,2.51.08s1.37.08,1.81.08a7.84,7.84,0,0,0,1.19-.08,8.35,8.35,0,0,1,1.26-.08,1.17,1.17,0,0,1,.72.18.8.8,0,0,1,.22.65,1,1,0,0,1-.15.51.54.54,0,0,1-.5.25,2.43,2.43,0,0,1-.62-.06,2.44,2.44,0,0,0-.61-.06.59.59,0,0,0-.31.09.82.82,0,0,0-.25.42,4.72,4.72,0,0,0-.17.94q-.06.61-.06,1.65v4.32a3.05,3.05,0,0,0,.22,1.43.64.64,0,0,0,.57.38,2.8,2.8,0,0,0,.64-.08,3.63,3.63,0,0,1,.45-.07.68.68,0,0,1,.77.77c0,.55-.34.82-1,.82l-.4,0-.72-.08-.8-.07-.64,0a10.88,10.88,0,0,0-1.62.1,6.92,6.92,0,0,1-.81.11c-.64,0-1-.26-1-.79s.24-.82.74-.82a2.15,2.15,0,0,1,.54.09,1.89,1.89,0,0,0,.53.1.51.51,0,0,0,.52-.37,4.63,4.63,0,0,0,.15-1.46V44.28a.58.58,0,0,0-.34-.58,2,2,0,0,0-.9-.17H136a2.18,2.18,0,0,0-1.47.53,1.81,1.81,0,0,0-.61,1.45c0,.25,0,.51,0,.75s0,.48,0,.69a2.3,2.3,0,0,1-.59,1.78,2.48,2.48,0,0,1-1.76.56q-2.49,0-2.49-2.31V45.14a.72.72,0,0,1,.8-.82c.49,0,.74.26.74.78v1.18c0,1,.29,1.54.86,1.54a.72.72,0,0,0,.71-.34,2,2,0,0,0,.17-.89c0-.13,0-.3,0-.51S132.3,45.71,132.3,45.58Zm6.75-6a2.53,2.53,0,0,0-.08-.68.79.79,0,0,0-.38-.43,2.62,2.62,0,0,0-.86-.21,15.12,15.12,0,0,0-1.52-.06,5.07,5.07,0,0,0-1.33.14,2.46,2.46,0,0,0-.86.41,1.53,1.53,0,0,0-.45.65,2.37,2.37,0,0,0-.13.81,1.68,1.68,0,0,0,.79,1.49,4.79,4.79,0,0,0,2.58.52h1.07a1.34,1.34,0,0,0,1-.24,2,2,0,0,0,.2-1.09Z"/><path class="cls-2" d="M156,38.18a.82.82,0,0,0-.82.67c-.11.36-.2.7-.27,1a8.12,8.12,0,0,1-.25,1,4.37,4.37,0,0,1-.43.93,3.41,3.41,0,0,1-.81.86,3.71,3.71,0,0,1,1.49,1.08,3,3,0,0,1,.51,1.86c0,.13,0,.3,0,.5s0,.38,0,.51a2,2,0,0,0,.16.89.68.68,0,0,0,.69.34c.55,0,.83-.51.83-1.54V45.1q0-.78.75-.78a.71.71,0,0,1,.79.82V47c0,1.54-.82,2.31-2.47,2.31a2.46,2.46,0,0,1-1.74-.56,2.34,2.34,0,0,1-.58-1.78c0-.21,0-.44,0-.69s0-.5,0-.75a1.81,1.81,0,0,0-.56-1.46,2.69,2.69,0,0,0-1.61-.54,15.52,15.52,0,0,1-2.94.45v1.86a4.63,4.63,0,0,0,.15,1.46.52.52,0,0,0,.53.37,1.89,1.89,0,0,0,.53-.1,2.21,2.21,0,0,1,.55-.09c.5,0,.75.27.75.82s-.32.79-1,.79a6.92,6.92,0,0,1-.81-.11,11,11,0,0,0-1.63-.1l-.64,0-.79.07-.73.08-.39,0c-.68,0-1-.27-1-.82a.69.69,0,0,1,.78-.77,3.29,3.29,0,0,1,.44.07,2.87,2.87,0,0,0,.64.08.67.67,0,0,0,.58-.38,3.22,3.22,0,0,0,.22-1.43V40.18a3.22,3.22,0,0,0-.22-1.43.67.67,0,0,0-.58-.38,3.58,3.58,0,0,0-.64.07,2.44,2.44,0,0,1-.44.08.69.69,0,0,1-.78-.79c0-.55.34-.83,1-.83l.39,0,.73.07.79.07a5.84,5.84,0,0,0,.64,0A10.9,10.9,0,0,0,149.5,37c.46-.07.73-.11.81-.11q1,0,1,.81c0,.55-.25.83-.75.83a1.89,1.89,0,0,1-.55-.1,2.23,2.23,0,0,0-.53-.09.52.52,0,0,0-.53.37,4.63,4.63,0,0,0-.15,1.46v2.48c.69,0,1.28-.11,1.75-.18a6.33,6.33,0,0,0,1.21-.29,2.88,2.88,0,0,0,.8-.44,2.4,2.4,0,0,0,.53-.65,4.42,4.42,0,0,0,.52-1.45,9.2,9.2,0,0,1,.36-1.42,2.48,2.48,0,0,1,.76-1.09,2.72,2.72,0,0,1,1.71-.43,3,3,0,0,1,.88.14,2.62,2.62,0,0,1,.81.43,2.06,2.06,0,0,1,.82,1.67,1.52,1.52,0,0,1-.37,1,1.31,1.31,0,0,1-1,.43,1.18,1.18,0,0,1-.87-.32,1.06,1.06,0,0,1-.31-.79,1.08,1.08,0,0,1,.07-.46,1.17,1.17,0,0,1,.17-.26.38.38,0,0,0-.14-.26A.51.51,0,0,0,156,38.18Z"/><path class="cls-2" d="M169.66,40.18a4.45,4.45,0,0,0-.15-1.43.49.49,0,0,0-.48-.38,2.67,2.67,0,0,0-.55.07,2.12,2.12,0,0,1-.41.08.51.51,0,0,1-.47-.2,1,1,0,0,1-.14-.57.92.92,0,0,1,.18-.62.82.82,0,0,1,.64-.2l.3,0,.53.07.63.08.59,0h.36l.58,0c.23,0,.45,0,.66-.09l.58-.07.33,0a.82.82,0,0,1,.64.2.92.92,0,0,1,.18.62,1,1,0,0,1-.14.57.51.51,0,0,1-.46.2,2,2,0,0,1-.41-.08,2.86,2.86,0,0,0-.56-.07.51.51,0,0,0-.48.38,4.45,4.45,0,0,0-.15,1.43v5.64a2.8,2.8,0,0,0,.15,1.06.6.6,0,0,0,.63.34H176a.5.5,0,0,0,.53-.34,3.45,3.45,0,0,0,.12-1.06V40.18a5,5,0,0,0-.13-1.43.49.49,0,0,0-.47-.38,2.67,2.67,0,0,0-.55.07,2.12,2.12,0,0,1-.41.08.51.51,0,0,1-.47-.2,1.22,1.22,0,0,1,0-1.19.77.77,0,0,1,.63-.2l.36,0,.64.07.71.08.58,0a9.88,9.88,0,0,0,1.58-.11c.49-.07.77-.1.85-.1.64,0,1,.26,1,.79s-.25.82-.75.82a2,2,0,0,1-.56-.1,2.15,2.15,0,0,0-.53-.09.53.53,0,0,0-.53.37,5.07,5.07,0,0,0-.14,1.46v5.64a4.1,4.1,0,0,0,.16,1.35.68.68,0,0,0,.73.43,2.26,2.26,0,0,0,.55-.06,1.77,1.77,0,0,1,.39-.06,1.14,1.14,0,0,1,.81.28.94.94,0,0,1,.28.69c0,.08,0,.21,0,.39s-.05.38-.07.58-.05.4-.06.58,0,.32,0,.4,0,.41,0,.66,0,.49,0,.74a.69.69,0,0,1-.23.55.87.87,0,0,1-.57.19.74.74,0,0,1-.84-.84,1.74,1.74,0,0,1,0-.29c0-.13,0-.26,0-.39s0-.24,0-.36a1.58,1.58,0,0,0,0-.26,5.87,5.87,0,0,0-.05-.82.73.73,0,0,0-.23-.47,1,1,0,0,0-.51-.21,7,7,0,0,0-.9,0H163.61l-.64,0-.8.07-.72.08-.4,0c-.67,0-1-.27-1-.82a.68.68,0,0,1,.77-.77,3.63,3.63,0,0,1,.45.07,2.87,2.87,0,0,0,.64.08.64.64,0,0,0,.57-.38,3.08,3.08,0,0,0,.22-1.43V40.18a5.07,5.07,0,0,0-.14-1.46.53.53,0,0,0-.53-.37,2.15,2.15,0,0,0-.53.09,2,2,0,0,1-.56.1c-.5,0-.74-.27-.74-.82s.32-.79,1-.79c.08,0,.37,0,.86.1a9.67,9.67,0,0,0,1.57.11l.58,0,.71-.08.64-.07.36,0a.77.77,0,0,1,.63.2,1,1,0,0,1,.17.62,1.07,1.07,0,0,1-.13.57.54.54,0,0,1-.47.2,2,2,0,0,1-.41-.08,2.86,2.86,0,0,0-.56-.07.49.49,0,0,0-.47.38,5,5,0,0,0-.13,1.43v5.64a3.45,3.45,0,0,0,.12,1.06.5.5,0,0,0,.53.34h3.74a.59.59,0,0,0,.62-.34,2.8,2.8,0,0,0,.15-1.06Z"/><path class="cls-2" d="M187.83,49.39a5.11,5.11,0,0,1-4.05-1.75A6.92,6.92,0,0,1,182.26,43a6.88,6.88,0,0,1,1.53-4.69,5.2,5.2,0,0,1,4.11-1.74,5.28,5.28,0,0,1,4.15,1.71,6.76,6.76,0,0,1,1.51,4.65A6.91,6.91,0,0,1,192,47.6,5.29,5.29,0,0,1,187.83,49.39ZM188,38.11a3.22,3.22,0,0,0-2.65,1.18,5.56,5.56,0,0,0-1.06,3.35V43a5.86,5.86,0,0,0,.95,3.56,3.11,3.11,0,0,0,2.66,1.29,3.29,3.29,0,0,0,2.76-1.29,5.71,5.71,0,0,0,1-3.58C191.61,39.71,190.39,38.11,188,38.11Z"/><path class="cls-2" d="M96.37,65h6.19V63.08a4.72,4.72,0,0,0-.14-1.46.53.53,0,0,0-.53-.37,1.83,1.83,0,0,0-.53.1,2.29,2.29,0,0,1-.55.09c-.5,0-.75-.27-.75-.82s.32-.79,1-.79c.08,0,.35,0,.81.1a12.76,12.76,0,0,0,1.63.09l.64,0,.79-.06.72-.07.4,0c.68,0,1,.27,1,.82a.68.68,0,0,1-.77.77,3.29,3.29,0,0,1-.44-.07,2.87,2.87,0,0,0-.64-.08.66.66,0,0,0-.58.38,3.08,3.08,0,0,0-.22,1.43V68.7a4.63,4.63,0,0,0,.15,1.46.52.52,0,0,0,.53.37,1.89,1.89,0,0,0,.53-.1,2.21,2.21,0,0,1,.55-.09c.5,0,.75.27.75.83s-.32.8-1,.8c-.08,0-.34,0-.8-.1a9.71,9.71,0,0,0-1.63-.11l-.64,0-.79.08-.73.07-.39,0c-.68,0-1-.27-1-.83a.69.69,0,0,1,.78-.78,2.28,2.28,0,0,1,.44.07,2.85,2.85,0,0,0,.64.07.66.66,0,0,0,.58-.37,3.21,3.21,0,0,0,.21-1.42V66.62H96.37v2.09a3,3,0,0,0,.22,1.42.64.64,0,0,0,.58.37,2.85,2.85,0,0,0,.64-.07,2.17,2.17,0,0,1,.44-.07.68.68,0,0,1,.77.78c0,.56-.34.83-1,.83l-.4,0-.72-.07-.8-.08-.63,0a9.71,9.71,0,0,0-1.63.11c-.46.07-.73.1-.81.1-.64,0-1-.26-1-.8s.25-.83.74-.83a2.28,2.28,0,0,1,.56.09,1.83,1.83,0,0,0,.53.1.53.53,0,0,0,.53-.37,4.72,4.72,0,0,0,.14-1.46V63.08a3.26,3.26,0,0,0-.21-1.43.67.67,0,0,0-.58-.38,2.87,2.87,0,0,0-.64.08,3.63,3.63,0,0,1-.45.07.68.68,0,0,1-.77-.77c0-.55.34-.82,1-.82l.39,0,.73.07.79.06.64,0a12.76,12.76,0,0,0,1.63-.09c.45-.07.72-.1.8-.1.65,0,1,.26,1,.79s-.25.82-.75.82a2.21,2.21,0,0,1-.55-.09,2,2,0,0,0-.53-.1.52.52,0,0,0-.53.37,4.63,4.63,0,0,0-.15,1.46Z"/><path class="cls-2" d="M119.27,64.79a3,3,0,0,1-.12,1.12c-.09.14-.32.21-.7.21h-7.67a.74.74,0,0,0-.41.08.38.38,0,0,0-.09.28,4.33,4.33,0,0,0,1.08,3,3.46,3.46,0,0,0,2.7,1.21,3.5,3.5,0,0,0,1.94-.58,2.62,2.62,0,0,0,1.14-1.47l.22-.7a.75.75,0,0,1,.8-.58.8.8,0,0,1,.89.92,3.48,3.48,0,0,1-1.59,2.78,5.82,5.82,0,0,1-3.62,1.22,5.09,5.09,0,0,1-4-1.7,6.66,6.66,0,0,1-1.5-4.57,7,7,0,0,1,1.59-4.77,5.26,5.26,0,0,1,4.15-1.83,5,5,0,0,1,3.74,1.52A5.3,5.3,0,0,1,119.27,64.79Zm-8.75-.6c0,.22.17.34.53.34h5.76c.33,0,.5-.12.5-.34a3,3,0,0,0-1-2.23,3.14,3.14,0,0,0-2.27-1,3.62,3.62,0,0,0-2.45,1A2.91,2.91,0,0,0,110.52,64.19Z"/><path class="cls-2" d="M136.09,69.71l3-8.87c.24-.67.59-1,1.06-1a5.65,5.65,0,0,1,1.19.12,5.66,5.66,0,0,0,1.17.12,5.14,5.14,0,0,0,1.17-.12,4.59,4.59,0,0,1,1-.12c.72,0,1.08.28,1.08.83a.67.67,0,0,1-.75.76,3.58,3.58,0,0,1-.55-.06,3.69,3.69,0,0,0-.56-.06c-.78,0-1.18.6-1.18,1.81v5.56c0,1.21.39,1.81,1.16,1.81a4.53,4.53,0,0,0,.71-.06l.42-.06a.67.67,0,0,1,.75.77c0,.58-.34.87-1,.87h-.06l-.28,0c-.55-.06-1-.1-1.51-.13s-.87,0-1.24,0a10.67,10.67,0,0,0-1.49.11,9.9,9.9,0,0,1-1.35.11c-.61,0-.92-.27-.92-.8s.32-.82.94-.82a4.82,4.82,0,0,1,.67,0l.27,0a1,1,0,0,0,.49-.11.82.82,0,0,0,.31-.4,3.06,3.06,0,0,0,.17-.77c0-.33.05-.73.07-1.21l.14-6.43q0-.15-.12-.15s-.09,0-.14.15l-3.38,9.66a1.23,1.23,0,0,1-1.3.92,1.64,1.64,0,0,1-.9-.18,1.51,1.51,0,0,1-.45-.74l-3.3-9.66c0-.1-.1-.15-.17-.15s-.09,0-.09.15l.14,7.1c0,1.18.33,1.77.94,1.77a2.86,2.86,0,0,0,.7-.1h.29c.59,0,.89.28.89.85s-.3.84-.91.84H133l-.29,0-1.08-.15a10,10,0,0,0-1.21-.07,13.09,13.09,0,0,0-1.66.07l-1,.17a.4.4,0,0,0-.15,0h-.12q-1.08,0-1.08-.84a.77.77,0,0,1,.22-.57.67.67,0,0,1,.5-.23,3,3,0,0,1,.62.07,2.58,2.58,0,0,0,.51.07c.79,0,1.19-.6,1.19-1.81V63.11c0-1.21-.4-1.81-1.19-1.81a4,4,0,0,0-.56.06,3.92,3.92,0,0,1-.57.06c-.48,0-.72-.25-.72-.76s.35-.83,1.06-.83a6.26,6.26,0,0,1,1.16.1,6.92,6.92,0,0,0,1.11.09l.53,0,.68-.06.65-.07a3.15,3.15,0,0,1,.45,0,1,1,0,0,1,.76.29,2.37,2.37,0,0,1,.47.89Z"/><path class="cls-2" d="M156.6,61.27a2.8,2.8,0,0,0-.64.08,3.63,3.63,0,0,1-.45.07.68.68,0,0,1-.77-.77c0-.55.34-.82,1-.82l.4,0,.72.07.8.06.64,0a12.59,12.59,0,0,0,1.62-.09c.46-.07.73-.1.81-.1.64,0,1,.26,1,.79s-.24.82-.74.82a2.28,2.28,0,0,1-.56-.09,1.83,1.83,0,0,0-.53-.1.53.53,0,0,0-.53.37,5.07,5.07,0,0,0-.14,1.46v5.64a5.07,5.07,0,0,0,.14,1.46.53.53,0,0,0,.53.37,2.15,2.15,0,0,0,.53-.09,2,2,0,0,1,.56-.1c.5,0,.74.27.74.82s-.32.79-1,.79c-.08,0-.35,0-.81-.1a9.58,9.58,0,0,0-1.62-.11l-.64,0-.8.08-.72.07-.4,0c-.67,0-1-.27-1-.81a.69.69,0,0,1,.77-.78,2.66,2.66,0,0,1,.45.08,3.48,3.48,0,0,0,.64.07.65.65,0,0,0,.57-.37,3.13,3.13,0,0,0,.22-1.44V64.33L152,69.11a3,3,0,0,0-.48.5.84.84,0,0,0-.14.48c0,.31.16.46.5.46a2.15,2.15,0,0,0,.53-.09,2,2,0,0,1,.56-.1c.49,0,.74.27.74.82s-.32.79-1,.79c-.08,0-.35,0-.81-.1a9.66,9.66,0,0,0-1.62-.11l-.64,0-.8.08-.72.07-.4,0c-.67,0-1-.27-1-.81a.69.69,0,0,1,.77-.78,2.66,2.66,0,0,1,.45.08,3.47,3.47,0,0,0,.63.07.65.65,0,0,0,.58-.37,3.13,3.13,0,0,0,.22-1.44V63.08a3.11,3.11,0,0,0-.22-1.43.64.64,0,0,0-.58-.38,2.79,2.79,0,0,0-.63.08,3.63,3.63,0,0,1-.45.07.68.68,0,0,1-.77-.77c0-.55.34-.82,1-.82l.4,0,.72.07.8.06.64,0a12.7,12.7,0,0,0,1.62-.09c.46-.07.73-.1.81-.1.64,0,1,.26,1,.79s-.25.82-.74.82a2.28,2.28,0,0,1-.56-.09,1.83,1.83,0,0,0-.53-.1.53.53,0,0,0-.53.37,5.07,5.07,0,0,0-.14,1.46v4.65l5.61-5a1.36,1.36,0,0,0,.36-.45,1,1,0,0,0,.1-.49.46.46,0,0,0-.23-.45A1.06,1.06,0,0,0,156.6,61.27Z"/><path class="cls-2" d="M165.42,59.76a1.21,1.21,0,0,0,.6,1v-.24a.72.72,0,0,1,.25-.56.88.88,0,0,1,.64-.23A.93.93,0,0,1,168,60.82a1.49,1.49,0,0,1-.55,1.17,2.08,2.08,0,0,1-1.38.47,2.29,2.29,0,0,1-1.74-.72,2.49,2.49,0,0,1-.69-1.81,4,4,0,0,1,1.72-3.34,7.06,7.06,0,0,1,4.42-1.32,6.86,6.86,0,0,1,4.31,1.26,4,4,0,0,1,1.62,3.3,4.16,4.16,0,0,1-2.55,3.88c-.29.14-.66.31-1.11.5a6,6,0,0,0-1.94,1.16,2,2,0,0,0-.52,1.47,2.36,2.36,0,0,1-.12.92.79.79,0,0,1-.77.36c-.67,0-1-.42-1-1.25a3.31,3.31,0,0,1,.58-2,8.11,8.11,0,0,1,2.65-2,9.11,9.11,0,0,0,2.24-1.52,2.27,2.27,0,0,0,.5-1.56,2.54,2.54,0,0,0-1.08-2.14,4.74,4.74,0,0,0-2.87-.8,5.16,5.16,0,0,0-3,.85A2.5,2.5,0,0,0,165.42,59.76Zm3.47,12.53a1.52,1.52,0,1,1,0-3,1.41,1.41,0,0,1,1.06.45,1.55,1.55,0,0,1,0,2.14A1.41,1.41,0,0,1,168.89,72.29Z"/><path class="cls-3" d="M36.69,0c-7.5,16.66,3.68,19.3,8.79,28,3.78,5.77,1.38,12.16-3.07,14.14-8.15,3.61-14.51-.3-17.59-5.7C16.21,23.55,22.37,8.14,36.69,0Z"/><path class="cls-4" d="M49.14,10.45c-.82,21-13.68,18-23.38,24.26-6.86,4-7.67,11.81-4.1,16.13,6.53,7.9,15.09,7.14,21,3.15C58.15,45.2,59.71,26.17,49.14,10.45Z"/></svg>